<?xml version="1.0" encoding="UTF-8" standalone="no"?>
<!-- Created with Inkscape (http://www.inkscape.org/) -->

<svg
   xmlns:dc="http://purl.org/dc/elements/1.1/"
   xmlns:cc="http://creativecommons.org/ns#"
   xmlns:rdf="http://www.w3.org/1999/02/22-rdf-syntax-ns#"
   xmlns:svg="http://www.w3.org/2000/svg"
   xmlns="http://www.w3.org/2000/svg"
   xmlns:sodipodi="http://sodipodi.sourceforge.net/DTD/sodipodi-0.dtd"
   xmlns:inkscape="http://www.inkscape.org/namespaces/inkscape"
   width="123.4432mm"
   height="50.799999mm"
   viewBox="0 0 123.4432 50.799998"
   version="1.1"
   id="svg8"
   inkscape:version="0.92.3 (2405546, 2018-03-11)"
   sodipodi:docname="logo.svg">
  <defs
     id="defs2" />
  <sodipodi:namedview
     id="base"
     pagecolor="#ffffff"
     bordercolor="#666666"
     borderopacity="1.0"
     inkscape:pageopacity="0.0"
     inkscape:pageshadow="2"
     inkscape:zoom="0.7"
     inkscape:cx="413.76233"
     inkscape:cy="91.142866"
     inkscape:document-units="mm"
     inkscape:current-layer="layer1"
     showgrid="false"
     fit-margin-top="0"
     fit-margin-left="0"
     fit-margin-right="-1.3"
     fit-margin-bottom="-0.6"
     inkscape:window-width="1299"
     inkscape:window-height="713"
     inkscape:window-x="67"
     inkscape:window-y="27"
     inkscape:window-maximized="1" />
  <metadata
     id="metadata5">
    <rdf:RDF>
      <cc:Work
         rdf:about="">
        <dc:format>image/svg+xml</dc:format>
        <dc:type
           rdf:resource="http://purl.org/dc/dcmitype/StillImage" />
        <dc:title></dc:title>
      </cc:Work>
    </rdf:RDF>
  </metadata>
  <g
     inkscape:label="Layer 1"
     inkscape:groupmode="layer"
     id="layer1"
     transform="translate(-39.850445,-32.914135)">
    <g
       id="g3806"
       transform="matrix(4.7530506,0,0,4.7373016,23.25538,3.0036156)" />
    <g
       id="g3808"
       transform="matrix(4.7530506,0,0,4.7373016,23.25538,3.0036156)" />
    <g
       id="g3810"
       transform="matrix(4.7530506,0,0,4.7373016,23.25538,3.0036156)" />
    <g
       id="g3812"
       transform="matrix(4.7530506,0,0,4.7373016,23.25538,3.0036156)" />
    <g
       id="g3814"
       transform="matrix(4.7530506,0,0,4.7373016,23.25538,3.0036156)" />
    <g
       id="g3816"
       transform="matrix(4.7530506,0,0,4.7373016,23.25538,3.0036156)" />
    <g
       id="g3818"
       transform="matrix(4.7530506,0,0,4.7373016,23.25538,3.0036156)" />
    <g
       id="g3820"
       transform="matrix(4.7530506,0,0,4.7373016,23.25538,3.0036156)" />
    <g
       id="g3822"
       transform="matrix(4.7530506,0,0,4.7373016,23.25538,3.0036156)" />
    <g
       id="g3824"
       transform="matrix(4.7530506,0,0,4.7373016,23.25538,3.0036156)" />
    <g
       id="g3826"
       transform="matrix(4.7530506,0,0,4.7373016,23.25538,3.0036156)" />
    <g
       id="g3828"
       transform="matrix(4.7530506,0,0,4.7373016,23.25538,3.0036156)" />
    <g
       id="g3830"
       transform="matrix(4.7530506,0,0,4.7373016,23.25538,3.0036156)" />
    <g
       id="g3832"
       transform="matrix(4.7530506,0,0,4.7373016,23.25538,3.0036156)" />
    <g
       id="g3834"
       transform="matrix(4.7530506,0,0,4.7373016,23.25538,3.0036156)" />
    <g
       aria-label="&lt; hd /&gt;"
       style="font-style:normal;font-weight:normal;font-size:10.58333302px;line-height:1.25;font-family:sans-serif;letter-spacing:0px;word-spacing:0px;fill:#ffffff;fill-opacity:1;stroke:none;stroke-width:0.26458332"
       id="text3715"
       transform="translate(2.4531772,-10.539439)"
       inkscape:export-xdpi="96"
       inkscape:export-ydpi="96">
      <path
         d="m 37.397268,69.463174 0.4572,-2.0828 17.1196,-8.636 -0.3556,4.064 -11.2776,5.8928 9.2456,4.826 -1.1176,3.9116 z"
         style="font-style:normal;font-variant:normal;font-weight:normal;font-stretch:normal;font-size:50.79999924px;font-family:Lobster;-inkscape-font-specification:Lobster;fill:#ffffff;stroke-width:0.26458332"
         id="path3864"
         inkscape:connector-curvature="0" />
      <path
         d="m 84.550779,81.858374 q -3.0988,0 -4.572,-1.6256 -1.4224,-1.6764 -1.4224,-4.1148 0,-1.0668 0.254,-2.3876 0.254,-1.3716 0.508,-2.6416 0.3048,-1.27 0.4064,-1.6256 0.4064,-1.778 0.762,-3.5052 0.3556,-1.7272 0.3556,-2.794 0,-2.5908 -1.8288,-2.5908 -1.3208,0 -2.3368,1.3208 -1.016,1.27 -1.6256,3.3528 l -3.4544,16.3068 h -7.3152 l 7.366,-34.544 7.5184,-1.016 -2.7432,12.8016 q 2.54,-2.8448 5.9436,-2.8448 2.5908,0 4.1148,1.4224 1.524,1.4224 1.524,4.318 0,1.4732 -0.3556,3.302 -0.3556,1.778 -1.016,4.3688 -0.4064,1.5748 -0.762,3.0988 -0.3048,1.4732 -0.3048,2.3368 0,1.016 0.4572,1.5748 0.4572,0.5588 1.5748,0.5588 1.524,0 2.4384,-1.0668 0.9144,-1.1176 1.8288,-3.4036 h 2.133599 q -1.879599,5.588 -4.368799,7.5184 -2.4384,1.8796 -5.08,1.8796 z"
         style="font-style:normal;font-variant:normal;font-weight:normal;font-stretch:normal;font-size:50.79999924px;font-family:Lobster;-inkscape-font-specification:Lobster;fill:#ffffff;stroke-width:0.26458332"
         id="path3866"
         inkscape:connector-curvature="0" />
      <path
         d="m 98.005634,81.858374 q -2.8956,0 -4.826,-1.9812 -1.9304,-1.9812 -1.9304,-6.1976 0,-3.7592 1.4732,-7.874 1.524,-4.1656 4.4704,-7.0104 2.997196,-2.8956 7.111996,-2.8956 2.0828,0 3.0988,0.7112 1.016,0.7112 1.016,1.8796 v 0.2032 l 2.4892,-11.684 7.5184,-1.016 -5.842,27.432 q -0.2032,0.762 -0.2032,1.4732 0,2.032 2.0828,2.032 0.9144,0 1.6256,-0.3048 -0.2032,2.54 -1.8288,3.9116 -1.5748,1.3208 -3.7592,1.3208 -2.032,0 -3.4544,-1.016 -1.3716,-1.0668 -1.8288,-3.2004 -3.048,4.2164 -7.213596,4.2164 z m 3.301996,-4.9276 q 1.1176,0 2.2352,-0.9652 1.1684,-0.9652 1.7272,-2.6924 l 0.2032,-0.8128 2.4892,-11.6332 q -0.4572,-1.778 -2.0828,-1.778 -2.032,0 -3.6576,2.3876 -1.6256,2.3368 -2.539996,5.6896 -0.9144,3.302 -0.9144,5.842 0,2.54 0.7112,3.2512 0.761996,0.7112 1.828796,0.7112 z"
         style="font-style:normal;font-variant:normal;font-weight:normal;font-stretch:normal;font-size:50.79999924px;font-family:Lobster;-inkscape-font-specification:Lobster;fill:#ffffff;stroke-width:0.26458332"
         id="path3868"
         inkscape:connector-curvature="0" />
      <path
         d="m 138.46069,43.453574 h 3.6576 l -10.7696,50.799999 h -3.6576 z"
         style="font-style:normal;font-variant:normal;font-weight:normal;font-stretch:normal;font-size:50.79999924px;font-family:Lobster;-inkscape-font-specification:Lobster;fill:#ffffff;stroke-width:0.26458332"
         id="path3870"
         inkscape:connector-curvature="0" />
      <path
         d="m 143.61927,73.374774 11.2776,-5.8928 -9.2456,-4.826 1.1176,-3.9116 14.0716,7.9756 -0.4572,2.0828 -17.1196,8.636 z"
         style="font-style:normal;font-variant:normal;font-weight:normal;font-stretch:normal;font-size:50.79999924px;font-family:Lobster;-inkscape-font-specification:Lobster;fill:#ffffff;stroke-width:0.26458332"
         id="path3872"
         inkscape:connector-curvature="0" />
    </g>
  </g>
</svg>
